<svg width="17" height="16" viewBox="0 0 17 16" fill="none" xmlns="http://www.w3.org/2000/svg">
<path fill-rule="evenodd" clip-rule="evenodd" d="M16.0001 8.00003C16.0001 4.88124 13.4718 2.35297 10.353 2.35297C7.23421 2.35297 4.70594 4.88124 4.70594 8.00003C4.70594 11.1188 7.23421 13.6471 10.353 13.6471C13.4718 13.6471 16.0001 11.1188 16.0001 8.00003ZM16.4706 8.00003C16.4706 4.62135 13.7317 1.88238 10.353 1.88238C6.97432 1.88238 4.23535 4.62135 4.23535 8.00003C4.23535 11.3787 6.97432 14.1177 10.353 14.1177C13.7317 14.1177 16.4706 11.3787 16.4706 8.00003Z" fill="black"/>
<path fill-rule="evenodd" clip-rule="evenodd" d="M9.10766 5.01017L12.0976 8.00008L9.10766 10.99L8.7749 10.6572L11.4321 8.00008L8.7749 5.34293L9.10766 5.01017Z" fill="black"/>
<path d="M0 0.666667H0.470588V0.470588H0.676471V0H0V0.666667Z" fill="black"/>
<path d="M2.02941 0H3.38235V0.470588H2.02941V0Z" fill="black"/>
<path d="M4.73529 0H6.08824V0.470588H4.73529V0Z" fill="black"/>
<path d="M7.44118 0H8.79412V0.470588H7.44118V0Z" fill="black"/>
<path d="M10.1471 0H10.8235V0.666665H10.3529V0.470588H10.1471V0Z" fill="black"/>
<path d="M10.3529 13.6471V14H10.8235V13.6471H10.3529Z" fill="black"/>
<path d="M10.8235 15.3333V16H10.1471V15.5294H10.3529V15.3333H10.8235Z" fill="black"/>
<path d="M8.79412 16H7.44118V15.5294H8.79412V16Z" fill="black"/>
<path d="M6.08824 16H4.73529V15.5294H6.08824V16Z" fill="black"/>
<path d="M3.38235 16H2.02941V15.5294H3.38235V16Z" fill="black"/>
<path d="M0.676471 16H0V15.3333H0.470588V15.5294H0.676471V16Z" fill="black"/>
<path d="M0 14V12.6667H0.470588V14H0Z" fill="black"/>
<path d="M0 11.3333V10H0.470588V11.3333H0Z" fill="black"/>
<path d="M0 8.66667V7.33333H0.470588V8.66667H0Z" fill="black"/>
<path d="M0 6V4.66667H0.470588V6H0Z" fill="black"/>
<path d="M0 3.33333V2H0.470588V3.33333H0Z" fill="black"/>
</svg>
