<svg width="16" height="16" viewBox="0 0 16 16" fill="none" xmlns="http://www.w3.org/2000/svg">
<path fill-rule="evenodd" clip-rule="evenodd" d="M5.33309 10.7772V10.3186C5.33309 9.9387 5.02754 9.63072 4.65063 9.63072C4.27371 9.63072 3.96816 9.9387 3.96816 10.3186V10.7772C3.96816 11.1571 4.27371 11.4651 4.65063 11.4651C5.02754 11.4651 5.33309 11.1571 5.33309 10.7772ZM4.65063 9.17212C4.02243 9.17212 3.51318 9.68542 3.51318 10.3186V10.7772C3.51318 11.4104 4.02243 11.9237 4.65063 11.9237C5.27882 11.9237 5.78807 11.4104 5.78807 10.7772V10.3186C5.78807 9.68542 5.27882 9.17212 4.65063 9.17212Z" fill="black"/>
<path fill-rule="evenodd" clip-rule="evenodd" d="M4.65088 16.0001C7.21948 16.0001 9.30175 13.9012 9.30175 11.3122C9.30175 8.72312 7.21948 6.62427 4.65088 6.62427C2.08227 6.62427 0 8.72312 0 11.3122C0 13.9012 2.08227 16.0001 4.65088 16.0001ZM4.65088 15.5415C6.96821 15.5415 8.84678 13.648 8.84678 11.3122C8.84678 8.9764 6.96821 7.08287 4.65088 7.08287C2.33355 7.08287 0.454977 8.9764 0.454977 11.3122C0.454977 13.648 2.33355 15.5415 4.65088 15.5415Z" fill="black"/>
<path fill-rule="evenodd" clip-rule="evenodd" d="M12.0313 4.15295V3.69435C12.0313 3.31444 11.7258 3.00645 11.3489 3.00645C10.972 3.00645 10.6664 3.31444 10.6664 3.69435V4.15295C10.6664 4.53287 10.972 4.84085 11.3489 4.84085C11.7258 4.84085 12.0313 4.53287 12.0313 4.15295ZM11.3489 2.54785C10.7207 2.54785 10.2114 3.06116 10.2114 3.69435V4.15295C10.2114 4.78615 10.7207 5.29945 11.3489 5.29945C11.9771 5.29945 12.4863 4.78615 12.4863 4.15295V3.69435C12.4863 3.06116 11.9771 2.54785 11.3489 2.54785Z" fill="black"/>
<path fill-rule="evenodd" clip-rule="evenodd" d="M11.3491 9.37583C13.9177 9.37583 16 7.27698 16 4.68791C16 2.09885 13.9177 0 11.3491 0C8.78051 0 6.69824 2.09885 6.69824 4.68791C6.69824 7.27698 8.78051 9.37583 11.3491 9.37583ZM11.3491 8.91723C13.6665 8.91723 15.545 7.0237 15.545 4.68791C15.545 2.35213 13.6665 0.4586 11.3491 0.4586C9.03179 0.4586 7.15322 2.35213 7.15322 4.68791C7.15322 7.0237 9.03179 8.91723 11.3491 8.91723Z" fill="black"/>
<path d="M3.51318 3.41095V2.75171H4.11034V3.21031H3.96816V3.41095H3.51318Z" fill="black"/>
<path d="M6.49897 2.75171H5.30466V3.21031H6.49897V2.75171Z" fill="black"/>
<path d="M13.0677 10.0033H12.6127V11.3218H13.0677V10.0033Z" fill="black"/>
<path d="M13.0677 12.6403H12.6127V12.8409H12.4705V13.2995H13.0677V12.6403Z" fill="black"/>
<path d="M11.2762 13.2995V12.8409H10.0819V13.2995H11.2762Z" fill="black"/>
<path d="M8.8876 13.176V13.2995H8.81921C8.84261 13.2587 8.86542 13.2175 8.8876 13.176Z" fill="black"/>
<path d="M3.51318 6.0479H3.96816V4.72942H3.51318V6.0479Z" fill="black"/>
<path d="M7.024 14.9339C7.04089 14.8127 7.04977 14.6885 7.04977 14.5619C7.04977 13.1517 5.96031 12.0372 4.65092 12.0372C3.34131 12.0372 2.25185 13.1517 2.25185 14.5619C2.25185 14.681 2.25963 14.7981 2.27473 14.9125C2.10434 14.8018 1.94505 14.6791 1.79688 14.5453C1.80532 12.9053 3.08005 11.5786 4.65092 11.5786C6.2269 11.5786 7.50475 12.9142 7.50475 14.5619C7.50475 14.5684 7.50475 14.5747 7.50475 14.5812C7.35213 14.7097 7.19151 14.8276 7.024 14.9339Z" fill="black"/>
<path d="M13.6453 8.25488C13.6614 8.13887 13.6699 8.02007 13.6699 7.89892C13.6699 6.54973 12.6278 5.48345 11.3754 5.48345C10.1227 5.48345 9.07973 6.69224 9.07973 8.04143C9.07973 8.15541 9.08717 8.26746 9.10162 8.37694C8.93863 8.27099 8.78627 8.15359 8.64453 8.02558C8.65261 6.45647 9.87279 5.04468 11.3754 5.04468C12.8828 5.04468 14.1051 6.32252 14.1051 7.89892C14.1051 7.90513 14.1051 7.91123 14.1051 7.91745C13.9591 8.04032 13.8055 8.15311 13.6453 8.25488Z" fill="black"/>
</svg>
