<svg width="16" height="16" viewBox="0 0 16 16" fill="none" xmlns="http://www.w3.org/2000/svg">
<path fill-rule="evenodd" clip-rule="evenodd" d="M8.68571 0H0V8.22857H8.68571V0ZM8.22857 0.457143H0.457143V7.77143H8.22857V0.457143Z" fill="black"/>
<path fill-rule="evenodd" clip-rule="evenodd" d="M16.0001 9.14282H7.77148V16H16.0001V9.14282ZM15.5429 9.6H8.22857V15.5429H15.5429V9.6Z" fill="black"/>
<rect x="1.82861" y="1.82861" width="2.28571" height="0.457143" fill="black"/>
<rect x="4.57129" y="1.82861" width="2.28571" height="0.457143" fill="black"/>
<rect x="1.82861" y="3.19995" width="0.914286" height="0.457143" fill="black"/>
<rect x="3.2002" y="3.19995" width="3.65714" height="0.457143" fill="black"/>
<rect x="1.82861" y="4.57153" width="5.02857" height="0.457143" fill="black"/>
<rect x="9.6001" y="10.9714" width="4.57143" height="0.457143" fill="black"/>
<rect x="9.6001" y="12.3428" width="4.57143" height="0.457143" fill="black"/>
<rect x="11.4287" y="13.7144" width="2.74286" height="0.457143" fill="black"/>
<rect x="9.6001" y="13.7144" width="1.37143" height="0.457143" fill="black"/>
<rect x="1.82861" y="5.94287" width="5.02857" height="0.457143" fill="black"/>
<path d="M9.18092 4.11426V4.5714H10.6285V4.11426H9.18092Z" fill="black"/>
<path d="M12.0762 4.11426V4.5714H12.3428V4.71426H12.8V4.11426H12.0762Z" fill="black"/>
<path d="M12.8 5.91426H12.3428V7.11426H12.8V5.91426Z" fill="black"/>
<path d="M12.8 8.31426H12.3428V9.14283H12.8V8.31426Z" fill="black"/>
<path d="M7.73331 13.7143V13.2571H6.28569V13.7143H7.73331Z" fill="black"/>
<path d="M4.83807 13.7143V13.2571H4.5714V13.1143H4.11426V13.7143H4.83807Z" fill="black"/>
<path d="M4.11426 11.9143H4.5714V10.7143H4.11426V11.9143Z" fill="black"/>
<path d="M4.11426 9.51426H4.5714V8.31426H4.11426V9.51426Z" fill="black"/>
</svg>
