<svg width="16" height="16" viewBox="0 0 16 16" fill="none" xmlns="http://www.w3.org/2000/svg">
<path fill-rule="evenodd" clip-rule="evenodd" d="M7.31415 5.71424V4.79995C7.31415 4.16877 6.80247 3.65709 6.17129 3.65709C5.54011 3.65709 5.02843 4.16877 5.02843 4.79995V5.71424C5.02843 6.34542 5.54011 6.85709 6.17129 6.85709C6.80247 6.85709 7.31415 6.34542 7.31415 5.71424ZM6.17129 3.19995C5.28763 3.19995 4.57129 3.9163 4.57129 4.79995V5.71424C4.57129 6.59789 5.28763 7.31424 6.17129 7.31424C7.05494 7.31424 7.77129 6.59789 7.77129 5.71424V4.79995C7.77129 3.9163 7.05494 3.19995 6.17129 3.19995Z" fill="black"/>
<path fill-rule="evenodd" clip-rule="evenodd" d="M13.8851 11.1233L11.2888 14.0441L9.89844 12.7033L10.2158 12.3742L11.2635 13.3845L13.5434 10.8196L13.8851 11.1233Z" fill="black"/>
<path fill-rule="evenodd" clip-rule="evenodd" d="M15.0857 9.14293H8.68566V15.5429H15.0857V9.14293ZM8.22852 8.68579V16.0001H15.5428V8.68579H8.22852Z" fill="black"/>
<path d="M7.77143 12.1063C7.26314 12.2603 6.72612 12.3429 6.17143 12.3429C3.03104 12.3429 0.457143 9.69796 0.457143 6.4C0.457143 3.10204 3.03104 0.457143 6.17143 0.457143C9.31181 0.457143 11.8857 3.10204 11.8857 6.4C11.8857 7.03886 11.7891 7.65321 11.6106 8.22857H12.0873C12.2536 7.64918 12.3429 7.0354 12.3429 6.4C12.3429 2.86538 9.57981 0 6.17143 0C2.76304 0 0 2.86538 0 6.4C0 9.93462 2.76304 12.8 6.17143 12.8C6.72479 12.8 7.26115 12.7245 7.77143 12.5828V12.1063Z" fill="black"/>
<path d="M2.463 11.0944C2.463 11.2436 2.47133 11.3907 2.48752 11.5351C2.32026 11.4058 2.15954 11.268 2.00595 11.1222L2.00586 11.0944C2.00586 8.77313 3.82042 6.89136 6.0588 6.89136C7.22916 6.89136 8.28365 7.4058 9.02349 8.22852H8.37398C7.74627 7.67835 6.93678 7.3485 6.0588 7.3485C4.08842 7.3485 2.463 9.00979 2.463 11.0944Z" fill="black"/>
</svg>
