<svg width="16" height="16" viewBox="0 0 16 16" fill="none" xmlns="http://www.w3.org/2000/svg">
<path fill-rule="evenodd" clip-rule="evenodd" d="M9.37137 10.5142C9.75008 10.5142 10.0571 10.8212 10.0571 11.1999C10.0571 11.5786 9.75008 11.8856 9.37137 11.8856C8.99266 11.8856 8.68566 11.5786 8.68566 11.1999C8.68566 10.8212 8.99266 10.5142 9.37137 10.5142ZM9.37137 10.0571C10.0026 10.0571 10.5142 10.5687 10.5142 11.1999C10.5142 11.8311 10.0026 12.3428 9.37137 12.3428C8.74019 12.3428 8.22852 11.8311 8.22852 11.1999C8.22852 10.5687 8.74019 10.0571 9.37137 10.0571Z" fill="white"/>
<rect x="9.14307" y="4.57153" width="0.457143" height="2.28571" fill="white"/>
<rect x="16" y="10.9714" width="0.457143" height="2.28571" transform="rotate(90 16 10.9714)" fill="white"/>
<rect x="11.4941" y="8.72974" width="0.49465" height="2.51903" transform="rotate(45 11.4941 8.72974)" fill="white"/>
<rect x="5.02881" y="10.9714" width="0.457143" height="2.28571" transform="rotate(90 5.02881 10.9714)" fill="white"/>
<rect x="4.57129" y="7.18042" width="0.457143" height="0.964104" transform="rotate(-45 4.57129 7.18042)" fill="white"/>
<rect width="0.457143" height="0.964104" transform="matrix(0.707107 0.707107 0.707107 -0.707107 13.2573 7.53906)" fill="white"/>
<path fill-rule="evenodd" clip-rule="evenodd" d="M11.8856 13.7142H6.85705V14.6285H11.8856V13.7142ZM6.3999 13.2571V15.0857H12.3428V13.2571H6.3999Z" fill="white"/>
<path d="M13.5998 15.6952C14.7959 14.5697 15.5427 12.9721 15.5427 11.2001C15.5427 7.79172 12.7796 5.02868 9.37125 5.02868C5.96286 5.02868 3.19982 7.79172 3.19982 11.2001C3.19982 12.9721 3.94664 14.5697 5.14271 15.6952C5.0249 15.7929 4.91053 15.8946 4.7998 16.0001C3.53248 14.7928 2.74268 13.0887 2.74268 11.2001C2.74268 7.53925 5.71039 4.57153 9.37125 4.57153C13.0321 4.57153 15.9998 7.53925 15.9998 11.2001C15.9998 13.0887 15.21 14.7928 13.9427 16.0001C13.832 15.8946 13.7176 15.7929 13.5998 15.6952Z" fill="white"/>
<rect x="1.82861" y="1.82861" width="2.28571" height="0.457143" fill="white"/>
<rect x="4.57129" y="1.82861" width="2.28571" height="0.457143" fill="white"/>
<rect x="1.82861" y="3.19995" width="0.914286" height="0.457143" fill="white"/>
<rect x="3.2002" y="3.19995" width="3.65714" height="0.457143" fill="white"/>
<rect x="1.82861" y="4.57153" width="3.65714" height="0.457143" fill="white"/>
<rect x="1.82861" y="5.94287" width="2.28571" height="0.457143" fill="white"/>
<path d="M0.457143 0.457143H8.22857V4.20597C8.37941 4.18151 8.53184 4.16182 8.68571 4.14704V0H0V10.0571H2.3774C2.40239 9.90304 2.43235 9.7506 2.46711 9.6H0.457143V0.457143Z" fill="white"/>
</svg>
