<svg width="15" height="16" viewBox="0 0 15 16" fill="none" xmlns="http://www.w3.org/2000/svg">
<path fill-rule="evenodd" clip-rule="evenodd" d="M13.6472 7.99994C13.6472 6.18065 12.1724 4.70583 10.3531 4.70582C8.53379 4.70582 7.05897 6.18065 7.05897 7.99994C7.05897 9.81923 8.53379 11.2941 10.3531 11.2941C12.1724 11.2941 13.6472 9.81923 13.6472 7.99994ZM14.1178 7.99994C14.1178 5.92075 12.4323 4.23524 10.3531 4.23524C8.2739 4.23524 6.58838 5.92075 6.58838 7.99994C6.58838 10.0791 8.2739 11.7646 10.3531 11.7646C12.4323 11.7646 14.1178 10.0791 14.1178 7.99994Z" fill="white"/>
<path fill-rule="evenodd" clip-rule="evenodd" d="M9.57836 5.95137L11.6271 8.0001L9.57836 10.0488L9.24561 9.71607L10.9616 8.0001L9.24561 6.28412L9.57836 5.95137Z" fill="white"/>
<path d="M0 0.666667H0.470588V0.470588H0.676471V0H0V0.666667Z" fill="white"/>
<path d="M2.02941 0H3.38235V0.470588H2.02941V0Z" fill="white"/>
<path d="M4.73529 0H6.08824V0.470588H4.73529V0Z" fill="white"/>
<path d="M7.44118 0H8.79412V0.470588H7.44118V0Z" fill="white"/>
<path d="M10.1471 0H10.8235V0.666667H10.3529V0.470588H10.1471V0Z" fill="white"/>
<path d="M10.8235 2V3.33333H10.3529V2H10.8235Z" fill="white"/>
<path d="M10.8235 12.6667V14H10.3529V12.6667H10.8235Z" fill="white"/>
<path d="M10.8235 15.3333V16H10.1471V15.5294H10.3529V15.3333H10.8235Z" fill="white"/>
<path d="M8.79412 16H7.44118V15.5294H8.79412V16Z" fill="white"/>
<path d="M6.08824 16H4.73529V15.5294H6.08824V16Z" fill="white"/>
<path d="M3.38235 16H2.02941V15.5294H3.38235V16Z" fill="white"/>
<path d="M0.676471 16H0V15.3333H0.470588V15.5294H0.676471V16Z" fill="white"/>
<path d="M0 14V12.6667H0.470588V14H0Z" fill="white"/>
<path d="M0 11.3333V10H0.470588V11.3333H0Z" fill="white"/>
<path d="M0 8.66667V7.33333H0.470588V8.66667H0Z" fill="white"/>
<path d="M0 6V4.66667H0.470588V6H0Z" fill="white"/>
<path d="M0 3.33333V2H0.470588V3.33333H0Z" fill="white"/>
</svg>
