<svg width="16" height="16" viewBox="0 0 16 16" fill="none" xmlns="http://www.w3.org/2000/svg">
<path fill-rule="evenodd" clip-rule="evenodd" d="M9.97398 6.50218L9.61796 6.58294C9.11413 6.69722 8.64595 6.906 8.23295 7.18998L7.9196 7.40544L7.21885 6.7047L6.45481 7.46874L7.19088 8.2048L7.01638 8.50833C6.85743 8.78479 6.73042 9.08174 6.64025 9.3942L6.5449 9.72459H5.48546L5.48546 10.8051H6.47446L6.53846 11.1866C6.63079 11.737 6.83471 12.2496 7.12646 12.7006L7.32716 13.0109L6.58874 13.7493L7.35278 14.5133L8.10166 13.7644L8.409 13.953C8.77729 14.179 9.1844 14.3473 9.61796 14.4456L9.97398 14.5264V15.5429H11.0545V14.5263L11.4104 14.4455C11.8599 14.3435 12.281 14.1662 12.6598 13.9275L12.9687 13.7328L13.7491 14.5133L14.5132 13.7493L13.7327 12.9688L13.9273 12.6599C14.2052 12.2189 14.3997 11.7205 14.4893 11.1866L14.5533 10.8051H15.5426V9.72459H14.4829L14.3875 9.3942C14.306 9.11161 14.1943 8.84173 14.0561 8.58821L13.8925 8.28797L14.7439 7.4365L13.9799 6.67245L13.1835 7.46887L12.868 7.24148C12.4376 6.93131 11.944 6.7042 11.4104 6.58308L11.0545 6.50228V5.48571L9.97398 5.48571V6.50218ZM6.26549 14.0725L7.02953 14.8366C7.20806 15.0151 7.4975 15.0151 7.67603 14.8366L8.16993 14.3427C8.58001 14.5943 9.03362 14.7818 9.51684 14.8914V15.5429C9.51684 15.7953 9.72151 16 9.97398 16H11.0545C11.307 16 11.5116 15.7953 11.5116 15.5429V14.8913C12.0126 14.7776 12.4818 14.58 12.9036 14.3142L13.4259 14.8366C13.6044 15.0151 13.8939 15.0151 14.0724 14.8366L14.8364 14.0725C15.015 13.894 15.015 13.6046 14.8364 13.426L14.314 12.9036C14.6235 12.4125 14.8403 11.8572 14.9401 11.2622H15.5426C15.7951 11.2622 15.9998 11.0576 15.9998 10.8051V9.72459C15.9998 9.47211 15.7951 9.26744 15.5426 9.26744H14.8267C14.7358 8.9525 14.6114 8.65179 14.4575 8.36944L15.0672 7.75974C15.2457 7.58122 15.2457 7.29177 15.0672 7.11325L14.3031 6.34921C14.1246 6.17068 13.8352 6.17068 13.6567 6.34921L13.1352 6.87062C12.6562 6.52538 12.1064 6.27228 11.5116 6.13728V5.48571C11.5116 5.23323 11.307 5.02856 11.0545 5.02856H9.97398C9.72151 5.02856 9.51684 5.23323 9.51684 5.48571V6.13712C8.95527 6.2645 8.43369 6.49717 7.97394 6.81329L7.5421 6.38145C7.36358 6.20292 7.07413 6.20292 6.8956 6.38145L6.13156 7.14549C5.95304 7.32401 5.95304 7.61346 6.13156 7.79199L6.62006 8.28048C6.44306 8.58835 6.30153 8.9192 6.20103 9.26744H5.48546C5.23299 9.26744 5.02832 9.47211 5.02832 9.72459V10.8051C5.02832 11.0576 5.23299 11.2622 5.48546 11.2622H6.08762C6.1905 11.8756 6.41778 12.4467 6.74263 12.9489L6.26549 13.426C6.08697 13.6046 6.08697 13.894 6.26549 14.0725ZM13.2569 10.5143C13.2569 12.0291 12.0289 13.2571 10.514 13.2571C8.99919 13.2571 7.77117 12.0291 7.77117 10.5143C7.77117 8.99943 8.99919 7.77142 10.514 7.77142C12.0289 7.77142 13.2569 8.99943 13.2569 10.5143ZM12.7997 10.5143C12.7997 11.7766 11.7764 12.8 10.514 12.8C9.25166 12.8 8.22831 11.7766 8.22831 10.5143C8.22831 9.2519 9.25166 8.22856 10.514 8.22856C11.7764 8.22856 12.7997 9.2519 12.7997 10.5143Z" fill="white"/>
<path d="M0.457142 0.457142H10.0571V4.5719C10.0641 4.57158 10.0711 4.57142 10.0782 4.57142H10.5143V0H0V11.4285H4.5733C4.57206 11.4148 4.57142 11.4008 4.57142 11.3867V10.9714H0.457142V0.457142Z" fill="white"/>
<rect x="4.57129" y="2.28564" width="4.11428" height="0.457142" fill="white"/>
<rect x="1.82861" y="2.28564" width="1.37143" height="0.457142" fill="white"/>
<rect x="1.82861" y="4.57153" width="3.19999" height="0.457142" fill="white"/>
<rect x="6.3999" y="4.57153" width="2.28571" height="0.457142" fill="white"/>
<rect x="3.65723" y="6.85718" width="1.82857" height="0.457142" fill="white"/>
<path fill-rule="evenodd" clip-rule="evenodd" d="M4.57124 2.28576H3.19982V2.7429H4.57124V2.28576ZM2.74268 1.82861V3.20004H5.02838V1.82861H2.74268Z" fill="white"/>
<path fill-rule="evenodd" clip-rule="evenodd" d="M6.39986 4.5714H5.02843V5.02854H6.39986V4.5714ZM4.57129 4.11426V5.48568H6.857V4.11426H4.57129Z" fill="white"/>
<path fill-rule="evenodd" clip-rule="evenodd" d="M3.65718 6.85704H2.28576V7.31419H3.65718V6.85704ZM1.82861 6.3999V7.77133H4.11432V6.3999H1.82861Z" fill="white"/>
</svg>
