<svg width="16" height="16" viewBox="0 0 16 16" fill="none" xmlns="http://www.w3.org/2000/svg">
<path fill-rule="evenodd" clip-rule="evenodd" d="M13.7202 3.9178L13.7386 3.63307C13.7404 3.60554 13.7413 3.57772 13.7413 3.54962C13.7413 2.85161 13.1755 2.28576 12.4775 2.28576C11.8997 2.28576 11.4114 2.67386 11.2612 3.20449L11.0456 3.96626L10.4936 3.39874C10.3416 3.24246 10.1304 3.14626 9.89597 3.14626C9.53372 3.14626 9.22432 3.37757 9.10967 3.70196L9.00194 4.00676H8.17496C7.95219 4.00676 7.7716 4.18736 7.7716 4.41013C7.7716 4.6329 7.95219 4.81349 8.17496 4.81349H13.7682C13.991 4.81349 14.1716 4.6329 14.1716 4.41013C14.1716 4.2607 14.0906 4.12964 13.9679 4.05947L13.7202 3.9178ZM11.017 2.63878C10.9323 2.77437 10.8659 2.9226 10.8213 3.08C10.7099 2.96549 10.5775 2.87158 10.4302 2.80453C10.2674 2.73041 10.0865 2.68912 9.89597 2.68912C9.33396 2.68912 8.85585 3.0483 8.67866 3.54962H8.17496C7.69971 3.54962 7.31445 3.93488 7.31445 4.41013C7.31445 4.88537 7.69971 5.27063 8.17496 5.27063H13.7682C14.2435 5.27063 14.6287 4.88537 14.6287 4.41013C14.6287 4.09011 14.4541 3.8109 14.1948 3.66264C14.1973 3.62528 14.1985 3.5876 14.1985 3.54962C14.1985 2.59913 13.428 1.82861 12.4775 1.82861C11.8615 1.82861 11.3211 2.15226 11.017 2.63878Z" fill="white"/>
<path fill-rule="evenodd" clip-rule="evenodd" d="M3.65714 11.8856H0.457143V15.5428H3.65714V11.8856ZM0 11.4285V15.9999H4.11429V11.4285H0Z" fill="white"/>
<path fill-rule="evenodd" clip-rule="evenodd" d="M15.5429 7.77135H12.3429V15.5428H15.5429V7.77135ZM11.8857 7.31421V15.9999H16V7.31421H11.8857Z" fill="white"/>
<path d="M6.40001 0.457143H9.60001V1.82857H10.0572V0H5.94287V16H10.0572V6.4H9.60001V15.5429H6.40001V0.457143Z" fill="white"/>
</svg>
