<svg width="17" height="16" viewBox="0 0 17 16" fill="none" xmlns="http://www.w3.org/2000/svg">
<path d="M3.80811 10.2857C3.80811 9.6545 4.31978 9.14282 4.95097 9.14282C5.58216 9.14282 6.09383 9.6545 6.09383 10.2857V10.7428C6.09383 11.374 5.58216 11.8857 4.95097 11.8857C4.31978 11.8857 3.80811 11.374 3.80811 10.7428V10.2857Z" fill="#205FED"/>
<path fill-rule="evenodd" clip-rule="evenodd" d="M5.63669 10.7428V10.2857C5.63669 9.90697 5.32968 9.59997 4.95097 9.59997C4.57226 9.59997 4.26525 9.90697 4.26525 10.2857V10.7428C4.26525 11.1215 4.57226 11.4286 4.95097 11.4286C5.32968 11.4286 5.63669 11.1215 5.63669 10.7428ZM4.95097 9.14282C4.31978 9.14282 3.80811 9.6545 3.80811 10.2857V10.7428C3.80811 11.374 4.31978 11.8857 4.95097 11.8857C5.58216 11.8857 6.09383 11.374 6.09383 10.7428V10.2857C6.09383 9.6545 5.58216 9.14282 4.95097 9.14282Z" fill="black"/>
<path d="M10.5381 3.68266C10.5381 3.05147 11.0498 2.53979 11.681 2.53979C12.3121 2.53979 12.8238 3.05147 12.8238 3.68266V4.1398C12.8238 4.77099 12.3121 5.28267 11.681 5.28267C11.0498 5.28267 10.5381 4.77099 10.5381 4.1398V3.68266Z" fill="#205FED"/>
<path fill-rule="evenodd" clip-rule="evenodd" d="M12.3667 4.1398V3.68266C12.3667 3.30395 12.0597 2.99694 11.681 2.99694C11.3022 2.99694 10.9952 3.30395 10.9952 3.68266V4.1398C10.9952 4.51852 11.3022 4.82552 11.681 4.82552C12.0597 4.82552 12.3667 4.51852 12.3667 4.1398ZM11.681 2.53979C11.0498 2.53979 10.5381 3.05147 10.5381 3.68266V4.1398C10.5381 4.77099 11.0498 5.28267 11.681 5.28267C12.3121 5.28267 12.8238 4.77099 12.8238 4.1398V3.68266C12.8238 3.05147 12.3121 2.53979 11.681 2.53979Z" fill="black"/>
<path fill-rule="evenodd" clip-rule="evenodd" d="M4.95088 15.9493C7.53173 15.9493 9.62392 13.8571 9.62392 11.2762C9.62392 8.69536 7.53173 6.60317 4.95088 6.60317C2.37003 6.60317 0.277832 8.69536 0.277832 11.2762C0.277832 13.8571 2.37003 15.9493 4.95088 15.9493ZM4.95088 15.4921C7.27925 15.4921 9.16678 13.6046 9.16678 11.2762C9.16678 8.94783 7.27925 7.06031 4.95088 7.06031C2.6225 7.06031 0.734978 8.94783 0.734978 11.2762C0.734978 13.6046 2.6225 15.4921 4.95088 15.4921Z" fill="black"/>
<path fill-rule="evenodd" clip-rule="evenodd" d="M11.6811 9.34609C14.2619 9.34609 16.3541 7.2539 16.3541 4.67304C16.3541 2.09219 14.2619 0 11.6811 0C9.1002 0 7.00801 2.09219 7.00801 4.67304C7.00801 7.2539 9.1002 9.34609 11.6811 9.34609ZM11.6811 8.88894C14.0094 8.88894 15.8969 7.00142 15.8969 4.67304C15.8969 2.34467 14.0094 0.457146 11.6811 0.457146C9.35267 0.457146 7.46515 2.34467 7.46515 4.67304C7.46515 7.00142 9.35267 8.88894 11.6811 8.88894Z" fill="black"/>
<path d="M3.80811 3.40007V2.74292H4.40811V3.20007H4.26525V3.40007H3.80811Z" fill="black"/>
<path d="M6.80812 2.74292H5.60812V3.20007H6.80812V2.74292Z" fill="black"/>
<path d="M13.4082 9.97154H12.951V11.2858H13.4082V9.97154Z" fill="black"/>
<path d="M13.4082 12.6001H12.951V12.8001H12.8082V13.2573H13.4082V12.6001Z" fill="black"/>
<path d="M11.6082 13.2573V12.8001H10.4081V13.2573H11.6082Z" fill="black"/>
<path d="M9.20814 13.1341V13.2573H9.13942C9.16294 13.2166 9.18585 13.1756 9.20814 13.1341Z" fill="black"/>
<path d="M3.80811 6.02865H4.26525V4.71436H3.80811V6.02865Z" fill="black"/>
<path d="M7.81262 14.9982C7.0135 15.6275 6.02316 15.9999 4.95066 15.9999C3.87807 15.9999 2.88764 15.6274 2.08848 14.998C2.08485 14.9309 2.08301 14.8634 2.08301 14.7953C2.08301 12.9984 3.36685 11.5417 4.95056 11.5417C6.53426 11.5417 7.81811 12.9984 7.81811 14.7953C7.81811 14.8634 7.81626 14.9311 7.81262 14.9982Z" fill="#205FED"/>
<path fill-rule="evenodd" clip-rule="evenodd" d="M7.36083 14.7656C6.66968 15.2578 5.84098 15.5428 4.95066 15.5428C4.06025 15.5428 3.23148 15.2577 2.54029 14.7654C2.55425 13.1801 3.67983 11.9989 4.95056 11.9989C6.22133 11.9989 7.34694 13.1802 7.36083 14.7656ZM4.95066 15.9999C6.02316 15.9999 7.0135 15.6275 7.81262 14.9982C7.81626 14.9311 7.81811 14.8634 7.81811 14.7953C7.81811 12.9984 6.53426 11.5417 4.95056 11.5417C3.36685 11.5417 2.08301 12.9984 2.08301 14.7953C2.08301 14.8634 2.08485 14.9309 2.08848 14.998C2.88764 15.6274 3.87807 15.9999 4.95066 15.9999Z" fill="black"/>
<path d="M14.5507 8.22856C13.7524 8.90989 12.708 9.28068 11.5761 9.28068C10.5435 9.28068 9.59088 8.93831 8.82552 8.36089C8.8153 8.25877 8.81006 8.1551 8.81006 8.05017C8.81006 6.40781 10.0939 5.07642 11.6776 5.07642C13.2613 5.07642 14.5452 6.40781 14.5452 8.05017C14.5452 8.09637 14.5527 8.18287 14.5507 8.22856Z" fill="#205FED"/>
<path fill-rule="evenodd" clip-rule="evenodd" d="M14.0878 8.0146C13.4012 8.53566 12.5291 8.82354 11.5761 8.82354C10.7201 8.82354 9.9261 8.56255 9.268 8.11566C9.26747 8.0939 9.2672 8.07207 9.2672 8.05017C9.2672 6.64447 10.3619 5.53356 11.6776 5.53356C12.9822 5.53356 14.0695 6.62578 14.0878 8.0146ZM11.5761 9.28068C12.708 9.28068 13.7524 8.90989 14.5507 8.22856C14.5519 8.20224 14.5499 8.16237 14.5479 8.12447C14.5465 8.09658 14.5452 8.06976 14.5452 8.05017C14.5452 6.40781 13.2613 5.07642 11.6776 5.07642C10.0939 5.07642 8.81006 6.40781 8.81006 8.05017C8.81006 8.1551 8.8153 8.25877 8.82552 8.36089C9.59088 8.93831 10.5435 9.28068 11.5761 9.28068Z" fill="black"/>
</svg>
