<svg width="16" height="16" viewBox="0 0 16 16" fill="none" xmlns="http://www.w3.org/2000/svg">
<path d="M15.9998 3.65714C15.9998 5.67693 14.3625 7.31429 12.3427 7.31429C10.3229 7.31429 8.68555 5.67693 8.68555 3.65714C8.68555 1.63736 10.3229 0 12.3427 0C14.3625 0 15.9998 1.63736 15.9998 3.65714Z" fill="#205FED"/>
<path fill-rule="evenodd" clip-rule="evenodd" d="M12.3427 6.85714C14.11 6.85714 15.5427 5.42445 15.5427 3.65714C15.5427 1.88983 14.11 0.457143 12.3427 0.457143C10.5754 0.457143 9.14269 1.88983 9.14269 3.65714C9.14269 5.42445 10.5754 6.85714 12.3427 6.85714ZM12.3427 7.31429C14.3625 7.31429 15.9998 5.67693 15.9998 3.65714C15.9998 1.63736 14.3625 0 12.3427 0C10.3229 0 8.68555 1.63736 8.68555 3.65714C8.68555 5.67693 10.3229 7.31429 12.3427 7.31429Z" fill="black"/>
<path fill-rule="evenodd" clip-rule="evenodd" d="M14.3421 2.4375L11.7459 5.35827L10.3555 4.01753L10.6728 3.68845L11.7205 4.69873L14.0004 2.13379L14.3421 2.4375Z" fill="black"/>
<path fill-rule="evenodd" clip-rule="evenodd" d="M13.5529 13.8759L10.8101 11.1331L11.1333 10.8098L13.8762 13.5527L13.5529 13.8759Z" fill="black"/>
<path fill-rule="evenodd" clip-rule="evenodd" d="M10.8099 13.5527L13.5527 10.8098L13.876 11.1331L11.1331 13.8759L10.8099 13.5527Z" fill="black"/>
<rect x="1.82861" y="5.94287" width="0.914286" height="0.457143" fill="black"/>
<rect x="3.2002" y="5.94287" width="2.74286" height="0.457143" fill="black"/>
<rect x="1.82861" y="7.31421" width="4.11429" height="0.457143" fill="black"/>
<rect x="1.82861" y="8.68579" width="4.11429" height="0.457143" fill="black"/>
<rect x="3.65723" y="10.0571" width="2.28571" height="0.457143" fill="black"/>
<path fill-rule="evenodd" clip-rule="evenodd" d="M12.3427 15.5429C14.11 15.5429 15.5427 14.1102 15.5427 12.3429C15.5427 10.5756 14.11 9.14293 12.3427 9.14293C10.5754 9.14293 9.14269 10.5756 9.14269 12.3429C9.14269 14.1102 10.5754 15.5429 12.3427 15.5429ZM12.3427 16.0001C14.3625 16.0001 15.9998 14.3627 15.9998 12.3429C15.9998 10.3231 14.3625 8.68579 12.3427 8.68579C10.3229 8.68579 8.68555 10.3231 8.68555 12.3429C8.68555 14.3627 10.3229 16.0001 12.3427 16.0001Z" fill="black"/>
<path fill-rule="evenodd" clip-rule="evenodd" d="M7.31429 4.5714H0.457143V11.8857H7.31429V4.5714ZM0 4.11426V12.3428H7.77143V4.11426H0Z" fill="black"/>
</svg>
