<svg width="16" height="16" viewBox="0 0 16 16" fill="none" xmlns="http://www.w3.org/2000/svg">
<path fill-rule="evenodd" clip-rule="evenodd" d="M2.66671 2.90912C3.06837 2.90912 3.39398 2.58351 3.39398 2.18185C3.39398 1.78019 3.06837 1.45458 2.66671 1.45458C2.26505 1.45458 1.93944 1.78019 1.93944 2.18185C1.93944 2.58351 2.26505 2.90912 2.66671 2.90912ZM2.66671 3.39397C3.33615 3.39397 3.87883 2.85128 3.87883 2.18185C3.87883 1.51241 3.33615 0.969727 2.66671 0.969727C1.99727 0.969727 1.45459 1.51241 1.45459 2.18185C1.45459 2.85128 1.99727 3.39397 2.66671 3.39397Z" fill="black"/>
<path fill-rule="evenodd" clip-rule="evenodd" d="M10.4241 13.5757C10.5579 13.5757 10.6665 13.4671 10.6665 13.3332C10.6665 13.1993 10.5579 13.0908 10.4241 13.0908C10.2902 13.0908 10.1816 13.1993 10.1816 13.3332C10.1816 13.4671 10.2902 13.5757 10.4241 13.5757ZM10.4241 14.0605C10.8257 14.0605 11.1513 13.7349 11.1513 13.3332C11.1513 12.9316 10.8257 12.606 10.4241 12.606C10.0224 12.606 9.69678 12.9316 9.69678 13.3332C9.69678 13.7349 10.0224 14.0605 10.4241 14.0605Z" fill="black"/>
<path fill-rule="evenodd" clip-rule="evenodd" d="M8.00016 10.1817C9.20515 10.1817 10.182 9.2049 10.182 7.99992C10.182 6.79493 9.20515 5.8181 8.00016 5.8181C6.79518 5.8181 5.81834 6.79493 5.81834 7.99992C5.81834 9.2049 6.79518 10.1817 8.00016 10.1817ZM8.00016 10.6666C9.47292 10.6666 10.6668 9.47268 10.6668 7.99992C10.6668 6.52716 9.47292 5.33325 8.00016 5.33325C6.5274 5.33325 5.3335 6.52716 5.3335 7.99992C5.3335 9.47268 6.5274 10.6666 8.00016 10.6666Z" fill="black"/>
<rect x="7.75781" y="3.87891" width="0.484848" height="0.969697" fill="black"/>
<rect x="7.75781" y="11.1516" width="0.484848" height="0.969697" fill="black"/>
<rect x="12.1211" y="7.75757" width="0.484848" height="0.969697" transform="rotate(90 12.1211 7.75757)" fill="black"/>
<rect x="4.84863" y="7.75757" width="0.484848" height="0.969697" transform="rotate(90 4.84863 7.75757)" fill="black"/>
<rect x="11.0679" y="10.7607" width="0.433812" height="0.867624" transform="rotate(135 11.0679 10.7607)" fill="black"/>
<rect x="5.85254" y="5.54614" width="0.433812" height="0.867624" transform="rotate(135 5.85254 5.54614)" fill="black"/>
<rect x="5.23926" y="11.0674" width="0.433812" height="0.867624" transform="rotate(-135 5.23926 11.0674)" fill="black"/>
<rect x="10.4541" y="5.85254" width="0.433812" height="0.867624" transform="rotate(-135 10.4541 5.85254)" fill="black"/>
<path d="M15.5152 8C15.5152 12.1505 12.1505 15.5152 8 15.5152C3.8495 15.5152 0.484848 12.1505 0.484848 8C0.484848 6.38879 0.991887 4.89601 1.85511 3.67251C1.71191 3.59439 1.58122 3.49624 1.46679 3.38182C0.542935 4.68639 0 6.27979 0 8C0 12.4183 3.58172 16 8 16C12.4183 16 16 12.4183 16 8C16 3.58172 12.4183 0 8 0C6.52875 0 5.15026 0.397154 3.96589 1.0901C4.06981 1.21364 4.15643 1.35221 4.22202 1.50209C5.332 0.855337 6.62273 0.484848 8 0.484848C12.1505 0.484848 15.5152 3.8495 15.5152 8Z" fill="black"/>
<path d="M9.21704 13.4426C8.82531 13.5298 8.41806 13.5758 8.00006 13.5758C4.92065 13.5758 2.4243 11.0795 2.4243 8.00006C2.4243 4.92065 4.92065 2.4243 8.00006 2.4243C11.0795 2.4243 13.5758 4.92065 13.5758 8.00006C13.5758 9.8447 12.68 11.4801 11.2998 12.4951C11.4119 12.6121 11.5008 12.7516 11.559 12.9062C13.075 11.8046 14.0607 10.0174 14.0607 8.00006C14.0607 4.65288 11.3472 1.93945 8.00006 1.93945C4.65288 1.93945 1.93945 4.65288 1.93945 8.00006C1.93945 11.3472 4.65288 14.0607 8.00006 14.0607C8.46652 14.0607 8.92066 14.008 9.35688 13.9082C9.28091 13.7674 9.23198 13.6099 9.21704 13.4426Z" fill="black"/>
</svg>
