<svg width="16" height="16" viewBox="0 0 16 16" fill="none" xmlns="http://www.w3.org/2000/svg">
<path fill-rule="evenodd" clip-rule="evenodd" d="M15.5427 12.3429C15.5427 10.5755 14.11 9.14286 12.3427 9.14286C10.5754 9.14286 9.14269 10.5755 9.14269 12.3429C9.14269 14.1102 10.5754 15.5429 12.3427 15.5429C14.11 15.5429 15.5427 14.1102 15.5427 12.3429ZM15.9998 12.3429C15.9998 10.3231 14.3625 8.68571 12.3427 8.68571C10.3229 8.68571 8.68555 10.3231 8.68555 12.3429C8.68555 14.3626 10.3229 16 12.3427 16C14.3625 16 15.9998 14.3626 15.9998 12.3429Z" fill="black"/>
<path fill-rule="evenodd" clip-rule="evenodd" d="M11.5903 10.3526L13.5805 12.3428L11.5903 14.333L11.2671 14.0098L12.934 12.3428L11.2671 10.6759L11.5903 10.3526Z" fill="black"/>
<path d="M14.1422 8.60518L13.6872 8.5609C13.7051 8.3765 13.7143 8.18941 13.7143 8.00004C13.7143 7.81067 13.7051 7.62358 13.6872 7.43918L14.1422 7.3949C14.1616 7.594 14.1715 7.79586 14.1715 8.00004C14.1715 8.20422 14.1616 8.40609 14.1422 8.60518Z" fill="black"/>
<path d="M13.9073 6.20796L13.4697 6.34051C13.3603 5.97938 13.2161 5.6333 13.0409 5.30618L13.4439 5.09033C13.6331 5.44371 13.789 5.81766 13.9073 6.20796Z" fill="black"/>
<path d="M12.7708 4.08487L12.4176 4.37508C12.1799 4.08577 11.9143 3.8202 11.625 3.58249L11.9152 3.22928C12.2275 3.48588 12.5142 3.77255 12.7708 4.08487Z" fill="black"/>
<path d="M10.9098 2.55623L10.6939 2.95921C10.3668 2.784 10.0207 2.63975 9.65957 2.53034L9.79212 2.09283C10.1824 2.21108 10.5564 2.36696 10.9098 2.55623Z" fill="black"/>
<path d="M8.60518 1.8579L8.5609 2.3129C8.3765 2.29495 8.18941 2.28576 8.00004 2.28576C7.81067 2.28576 7.62358 2.29495 7.43918 2.3129L7.3949 1.8579C7.594 1.83853 7.79586 1.82861 8.00004 1.82861C8.20422 1.82861 8.40609 1.83853 8.60518 1.8579Z" fill="black"/>
<path d="M1.8579 7.3949C1.83853 7.594 1.82861 7.79586 1.82861 8.00004C1.82861 8.20422 1.83853 8.40609 1.8579 8.60518L2.3129 8.5609C2.29495 8.3765 2.28576 8.18941 2.28576 8.00004C2.28576 7.81067 2.29495 7.62358 2.3129 7.43918L1.8579 7.3949Z" fill="black"/>
<path d="M2.09283 9.79212L2.53034 9.65957C2.63975 10.0207 2.784 10.3668 2.95921 10.6939L2.55623 10.9098C2.36696 10.5564 2.21108 10.1824 2.09283 9.79212Z" fill="black"/>
<path d="M3.22928 11.9152L3.58249 11.625C3.8202 11.9143 4.08577 12.1799 4.37508 12.4176L4.08487 12.7708C3.77255 12.5142 3.48588 12.2275 3.22928 11.9152Z" fill="black"/>
<path d="M5.09033 13.4439L5.30618 13.0409C5.6333 13.2161 5.97938 13.3603 6.34051 13.4697L6.20796 13.9073C5.81766 13.789 5.44371 13.6331 5.09033 13.4439Z" fill="black"/>
<path d="M7.3949 14.1422L7.43918 13.6872C7.62358 13.7051 7.81067 13.7143 8.00004 13.7143C8.18941 13.7143 8.3765 13.7051 8.5609 13.6872L8.60518 14.1422C8.40609 14.1616 8.20422 14.1715 8.00004 14.1715C7.79586 14.1715 7.594 14.1616 7.3949 14.1422Z" fill="black"/>
<path fill-rule="evenodd" clip-rule="evenodd" d="M0.45731 3.65714C0.45731 5.42445 1.89 6.85714 3.65731 6.85714C5.42462 6.85714 6.85731 5.42445 6.85731 3.65714C6.85731 1.88983 5.42462 0.457143 3.65731 0.457143C1.89 0.457143 0.45731 1.88983 0.45731 3.65714ZM0.000167284 3.65714C0.000167236 5.67693 1.63753 7.31429 3.65731 7.31429C5.67709 7.31429 7.31445 5.67693 7.31445 3.65714C7.31445 1.63736 5.67709 -3.86367e-08 3.65731 -8.62975e-08C1.63753 -1.33958e-07 0.000167331 1.63736 0.000167284 3.65714Z" fill="black"/>
<path fill-rule="evenodd" clip-rule="evenodd" d="M3.95263 5.64738L1.96243 3.65719L3.95263 1.66699L4.27588 1.99024L2.60893 3.65719L4.27588 5.32414L3.95263 5.64738Z" fill="black"/>
</svg>
