<svg width="16" height="16" viewBox="0 0 16 16" fill="none" xmlns="http://www.w3.org/2000/svg">
<path fill-rule="evenodd" clip-rule="evenodd" d="M2.97143 5.48571C4.36003 5.48571 5.48571 4.36003 5.48571 2.97143C5.48571 1.58283 4.36003 0.457143 2.97143 0.457143C1.58283 0.457143 0.457143 1.58283 0.457143 2.97143C0.457143 4.36003 1.58283 5.48571 2.97143 5.48571ZM2.97143 5.94286C4.6125 5.94286 5.94286 4.6125 5.94286 2.97143C5.94286 1.33035 4.6125 0 2.97143 0C1.33035 0 0 1.33035 0 2.97143C0 4.6125 1.33035 5.94286 2.97143 5.94286Z" fill="black"/>
<path fill-rule="evenodd" clip-rule="evenodd" d="M7.33476 7.31432L6.4517 15.5429H15.4912L14.6081 7.31432H7.33476ZM15.0188 6.85718H6.92406L5.94287 16H16L15.0188 6.85718Z" fill="black"/>
<path d="M8.68555 8.22852C8.68555 9.49088 9.7089 10.5142 10.9713 10.5142C12.2336 10.5142 13.257 9.49088 13.257 8.22852H12.7998C12.7998 9.23841 11.9812 10.0571 10.9713 10.0571C9.96137 10.0571 9.14269 9.23841 9.14269 8.22852H8.68555Z" fill="black"/>
<path d="M12.1712 2.74292H12.7998V3.34292H12.3427V3.20006H12.1712V2.74292Z" fill="black"/>
<path d="M12.7998 5.74292V4.54292H12.3427V5.74292H12.7998Z" fill="black"/>
<path d="M5.88553 12.3429V11.8858H4.62839V12.3429H5.88553Z" fill="black"/>
<path d="M3.37125 12.3429V11.8858H3.19982V11.7429H2.74268V12.3429H3.37125Z" fill="black"/>
<path d="M2.74268 10.5429H3.19982V9.34292H2.74268V10.5429Z" fill="black"/>
<path d="M2.74268 8.14292H3.19982V6.94292H2.74268V8.14292Z" fill="black"/>
<path d="M7.14268 2.74292V3.20006H8.39982V2.74292H7.14268Z" fill="black"/>
<path d="M9.65696 2.74292V3.20006H10.9141V2.74292H9.65696Z" fill="black"/>
</svg>
