<svg width="16" height="16" viewBox="0 0 16 16" fill="none" xmlns="http://www.w3.org/2000/svg">
<path fill-rule="evenodd" clip-rule="evenodd" d="M14.1148 6.29426L13.6664 6.20554C13.6977 6.04704 13.7142 5.88285 13.7142 5.71435C13.7142 5.54585 13.6977 5.38165 13.6664 5.22316L14.1148 5.13444C14.1519 5.322 14.1714 5.5159 14.1714 5.71435C14.1714 5.9128 14.1519 6.1067 14.1148 6.29426ZM13.6709 4.06338L13.291 4.31769C13.1073 4.04331 12.871 3.80698 12.5966 3.62328L12.8509 3.24341C13.175 3.46035 13.4539 3.73934 13.6709 4.06338ZM11.7799 2.79948C11.5923 2.76237 11.3984 2.74292 11.1999 2.74292C11.0015 2.74292 10.8076 2.76237 10.62 2.79948L10.7088 3.24793C10.8672 3.21657 11.0314 3.20006 11.1999 3.20006C11.3684 3.20006 11.5326 3.21657 11.6911 3.24793L11.7799 2.79948ZM9.54897 3.24341L9.80329 3.62328C9.52891 3.80698 9.29257 4.04331 9.10888 4.31769L8.72901 4.06338C8.94595 3.73934 9.22493 3.46035 9.54897 3.24341ZM8.28507 5.13444C8.24797 5.322 8.22852 5.5159 8.22852 5.71435C8.22852 5.9128 8.24797 6.1067 8.28507 6.29426L8.73353 6.20554C8.70217 6.04704 8.68566 5.88285 8.68566 5.71435C8.68566 5.54585 8.70217 5.38165 8.73353 5.22316L8.28507 5.13444ZM8.72901 7.36532L9.10888 7.111C9.29257 7.38539 9.52891 7.62172 9.80329 7.80541L9.54897 8.18529C9.22493 7.96835 8.94595 7.68936 8.72901 7.36532ZM10.62 8.62922L10.7088 8.18077C10.8672 8.21212 11.0314 8.22863 11.1999 8.22863C11.3684 8.22863 11.5326 8.21212 11.6911 8.18077L11.7799 8.62922C11.5923 8.66632 11.3984 8.68578 11.1999 8.68578C11.0015 8.68578 10.8076 8.66632 10.62 8.62922ZM12.8509 8.18529L12.5966 7.80541C12.871 7.62172 13.1073 7.38539 13.291 7.111L13.6709 7.36532C13.4539 7.68936 13.175 7.96835 12.8509 8.18529Z" fill="white"/>
<path d="M1.82861 6.85718L16 6.85718V16H1.82861L1.82861 6.85718Z" fill="#205FED"/>
<path fill-rule="evenodd" clip-rule="evenodd" d="M15.5429 7.31432L2.28576 7.31432L2.28576 15.5429H15.5429V7.31432ZM1.82861 6.85718L1.82861 16H16V6.85718L1.82861 6.85718Z" fill="white"/>
<path fill-rule="evenodd" clip-rule="evenodd" d="M13.714 12.7999H11.4283V14.1713H13.714V12.7999ZM10.9712 12.3428V14.6285H14.1712V12.3428H10.9712Z" fill="white"/>
<path fill-rule="evenodd" clip-rule="evenodd" d="M15.5429 10.0573H2.28576V9.14298H15.5429V10.0573ZM1.82861 10.5144V8.68583H16V10.5144H1.82861Z" fill="white"/>
<rect x="3.65723" y="12.3428" width="5.94286" height="0.457143" fill="white"/>
<rect x="3.65723" y="14.1714" width="4.57143" height="0.457143" fill="white"/>
<rect x="3.65723" y="13.2571" width="2.28571" height="0.457143" fill="white"/>
<rect x="6.3999" y="13.2571" width="3.2" height="0.457143" fill="white"/>
<path fill-rule="evenodd" clip-rule="evenodd" d="M5.8863 3.55134L5.43785 3.46262C5.4692 3.30412 5.48571 3.13993 5.48571 2.97143C5.48571 2.80293 5.4692 2.63873 5.43785 2.48024L5.8863 2.39152C5.9234 2.57908 5.94286 2.77298 5.94286 2.97143C5.94286 3.16988 5.9234 3.36378 5.8863 3.55134ZM5.44237 1.32046L5.06249 1.57477C4.8788 1.30039 4.64247 1.06406 4.36808 0.880363L4.6224 0.500491C4.94644 0.71743 5.22543 0.996418 5.44237 1.32046ZM3.55134 0.0565583C3.36378 0.0194538 3.16988 0 2.97143 0C2.77298 0 2.57908 0.0194538 2.39152 0.0565583L2.48024 0.50501C2.63873 0.473655 2.80293 0.457143 2.97143 0.457143C3.13993 0.457143 3.30412 0.473655 3.46262 0.50501L3.55134 0.0565583ZM1.32046 0.500491L1.57477 0.880363C1.30039 1.06406 1.06406 1.30039 0.880363 1.57477L0.500491 1.32046C0.71743 0.996418 0.996418 0.71743 1.32046 0.500491ZM0.0565583 2.39152C0.0194538 2.57908 0 2.77298 0 2.97143C0 3.16988 0.0194538 3.36378 0.0565583 3.55134L0.50501 3.46262C0.473655 3.30412 0.457143 3.13993 0.457143 2.97143C0.457143 2.80293 0.473655 2.63873 0.50501 2.48024L0.0565583 2.39152ZM0.500491 4.6224L0.880363 4.36808C1.06406 4.64247 1.30039 4.8788 1.57477 5.06249L1.32046 5.44237C0.996418 5.22543 0.71743 4.94644 0.500491 4.6224ZM2.39152 5.8863L2.48024 5.43785C2.63873 5.4692 2.80293 5.48571 2.97143 5.48571C3.13993 5.48571 3.30412 5.4692 3.46262 5.43785L3.55134 5.8863C3.36378 5.9234 3.16988 5.94286 2.97143 5.94286C2.77298 5.94286 2.57908 5.9234 2.39152 5.8863ZM4.6224 5.44237L4.36808 5.06249C4.64247 4.8788 4.8788 4.64247 5.06249 4.36808L5.44237 4.6224C5.22543 4.94644 4.94644 5.22543 4.6224 5.44237Z" fill="white"/>
</svg>
