<svg width="16" height="16" viewBox="0 0 16 16" fill="none" xmlns="http://www.w3.org/2000/svg">
<path fill-rule="evenodd" clip-rule="evenodd" d="M6.85714 13.2571C10.3918 13.2571 13.2571 10.3918 13.2571 6.85714C13.2571 3.32252 10.3918 0.457143 6.85714 0.457143C3.32252 0.457143 0.457143 3.32252 0.457143 6.85714C0.457143 10.3918 3.32252 13.2571 6.85714 13.2571ZM6.85714 13.7143C10.6442 13.7143 13.7143 10.6442 13.7143 6.85714C13.7143 3.07005 10.6442 0 6.85714 0C3.07005 0 0 3.07005 0 6.85714C0 10.6442 3.07005 13.7143 6.85714 13.7143Z" fill="white"/>
<path fill-rule="evenodd" clip-rule="evenodd" d="M13.7144 15.5428C14.7243 15.5428 15.543 14.7241 15.543 13.7142C15.543 12.7043 14.7243 11.8856 13.7144 11.8856C12.7045 11.8856 11.8859 12.7043 11.8859 13.7142C11.8859 14.7241 12.7045 15.5428 13.7144 15.5428ZM13.7144 15.9999C14.9768 15.9999 16.0001 14.9765 16.0001 13.7142C16.0001 12.4518 14.9768 11.4285 13.7144 11.4285C12.4521 11.4285 11.4287 12.4518 11.4287 13.7142C11.4287 14.9765 12.4521 15.9999 13.7144 15.9999Z" fill="white"/>
<path d="M6.40008 3.2001C6.40008 2.44269 5.78607 1.82868 5.02866 1.82868C4.27124 1.82868 3.65723 2.44269 3.65723 3.2001C3.65723 3.95752 4.27124 4.57153 5.02866 4.57153C5.78607 4.57153 6.40008 3.95752 6.40008 3.2001Z" fill="#205FED"/>
<path fill-rule="evenodd" clip-rule="evenodd" d="M5.02866 2.28582C5.5336 2.28582 5.94294 2.69516 5.94294 3.2001C5.94294 3.70505 5.5336 4.11439 5.02866 4.11439C4.52371 4.11439 4.11437 3.70505 4.11437 3.2001C4.11437 2.69516 4.52371 2.28582 5.02866 2.28582ZM5.02866 1.82868C5.78607 1.82868 6.40008 2.44269 6.40008 3.2001C6.40008 3.95752 5.78607 4.57153 5.02866 4.57153C4.27124 4.57153 3.65723 3.95752 3.65723 3.2001C3.65723 2.44269 4.27124 1.82868 5.02866 1.82868Z" fill="white"/>
<path d="M6.85712 10.057C6.85712 9.29962 6.24311 8.68561 5.48569 8.68561C4.72827 8.68561 4.11426 9.29962 4.11426 10.057C4.11426 10.8145 4.72827 11.4285 5.48569 11.4285C6.24311 11.4285 6.85712 10.8145 6.85712 10.057Z" fill="#205FED"/>
<path fill-rule="evenodd" clip-rule="evenodd" d="M5.48569 9.14275C5.99063 9.14275 6.39997 9.55209 6.39997 10.057C6.39997 10.562 5.99063 10.9713 5.48569 10.9713C4.98074 10.9713 4.5714 10.562 4.5714 10.057C4.5714 9.55209 4.98074 9.14275 5.48569 9.14275ZM5.48569 8.68561C6.24311 8.68561 6.85712 9.29962 6.85712 10.057C6.85712 10.8145 6.24311 11.4285 5.48569 11.4285C4.72827 11.4285 4.11426 10.8145 4.11426 10.057C4.11426 9.29962 4.72827 8.68561 5.48569 8.68561Z" fill="white"/>
<path fill-rule="evenodd" clip-rule="evenodd" d="M10.0572 5.94289C10.3097 5.94289 10.5144 6.14756 10.5144 6.40003C10.5144 6.65251 10.3097 6.85718 10.0572 6.85718C9.80477 6.85718 9.6001 6.65251 9.6001 6.40003C9.6001 6.14756 9.80477 5.94289 10.0572 5.94289Z" fill="white"/>
<path fill-rule="evenodd" clip-rule="evenodd" d="M3.65734 10.9715C3.90981 10.9715 4.11448 11.1761 4.11448 11.4286C4.11448 11.6811 3.90981 11.8857 3.65734 11.8857C3.40487 11.8857 3.2002 11.6811 3.2002 11.4286C3.2002 11.1761 3.40487 10.9715 3.65734 10.9715Z" fill="white"/>
<path fill-rule="evenodd" clip-rule="evenodd" d="M9.60021 8.22854C9.85268 8.22854 10.0574 8.43321 10.0574 8.68568C10.0574 8.93815 9.85268 9.14282 9.60021 9.14282C9.34774 9.14282 9.14307 8.93815 9.14307 8.68568C9.14307 8.43321 9.34774 8.22854 9.60021 8.22854Z" fill="white"/>
<path fill-rule="evenodd" clip-rule="evenodd" d="M2.74279 4.11428C2.99526 4.11428 3.19993 4.31895 3.19993 4.57142C3.19993 4.82389 2.99526 5.02856 2.74279 5.02856C2.49031 5.02856 2.28564 4.82389 2.28564 4.57142C2.28564 4.31895 2.49031 4.11428 2.74279 4.11428Z" fill="white"/>
<path d="M11.1999 2.05703C10.4077 0.86873 8.22845 0.533222 7.31416 0.457031C6.62845 1.14275 6.62845 2.97132 7.77131 3.65703C9.59999 4.57132 11.657 2.74275 11.1999 2.05703Z" fill="#205FED"/>
<path d="M7.0803 0.00366211C6.67501 0.458168 6.42871 1.05752 6.42871 1.71439C6.42871 3.13455 7.57998 4.28582 9.00014 4.28582C10.367 4.28582 11.4848 3.21935 11.5667 1.87312C11.4175 1.73205 11.2619 1.59761 11.1005 1.47027C11.1097 1.55037 11.1144 1.63183 11.1144 1.71439C11.1144 2.88208 10.1678 3.82868 9.00014 3.82868C7.83245 3.82868 6.88585 2.88208 6.88585 1.71439C6.88585 1.03916 7.20238 0.437865 7.69515 0.0507808C7.49279 0.0261274 7.28771 0.0102894 7.0803 0.00366211Z" fill="white"/>
<path fill-rule="evenodd" clip-rule="evenodd" d="M7.31408 6.8572C7.56655 6.8572 7.77122 7.06187 7.77122 7.31434C7.77122 7.56681 7.56655 7.77148 7.31408 7.77148C7.0616 7.77148 6.85693 7.56681 6.85693 7.31434C6.85693 7.06187 7.0616 6.8572 7.31408 6.8572Z" fill="white"/>
</svg>
